# xmcd
#
# Track frame offsets:
#	150
#	19196
#	36575
#	56230
#	72153
#	85947
#	106658
#	130491
#	146396
#	158232
#	171827
#	188620
#	201355
#
# Disc length: 2851 seconds
# Revision: 1
# Processed by: cddbd v1.5.2PL0 Copyright (c) Steve Scherf et al.
# Submitted via: dBpowerAMP V12.0
#
DISCID=b80b210d
DTITLE=Belle Starr - Belle Starr
DYEAR=2013
DGENRE=Country
TTITLE0=Cry Love
TTITLE1=New Girl Now
TTITLE2=Freedom to Stay
TTITLE3=Tougher Than the Rest
TTITLE4=Arthur's Air
TTITLE5=Same Old Scene
TTITLE6=Pull Me Down
TTITLE7=Charity Kiss
TTITLE8=Love Is a Rose
TTITLE9=Heartbreaker
TTITLE10=Be a Man
TTITLE11=Art O'leary
TTITLE12=Plough the Sea
EXTD=
EXTT0=
EXTT1=
EXTT2=
EXTT3=
EXTT4=
EXTT5=
EXTT6=
EXTT7=
EXTT8=
EXTT9=
EXTT10=
EXTT11=
EXTT12=
PLAYORDER=
